<svg width="42" height="42" viewBox="0 0 42 42" fill="none" xmlns="http://www.w3.org/2000/svg">
<circle cx="21" cy="21" r="20" fill="black" stroke="white"/>
<path fill-rule="evenodd" clip-rule="evenodd" d="M22 12.1012C22.984 11.8611 23.7144 10.9738 23.7144 9.91582C23.7144 8.67356 22.7074 7.6665 21.4651 7.6665C20.2229 7.6665 19.2158 8.67356 19.2158 9.91582C19.2158 10.9986 19.9809 11.9027 21 12.117V14.8234H12.4674C11.564 14.8234 10.8316 15.5557 10.8316 16.4592V27.9099C10.8316 28.8133 11.564 29.5457 12.4674 29.5457H14.9209V32.6353C14.9209 33.0473 15.3912 33.2825 15.7209 33.0353L20.3736 29.5457H30.4614C31.3648 29.5457 32.0972 28.8133 32.0972 27.9099V16.4592C32.0972 15.5557 31.3648 14.8234 30.4614 14.8234H22V12.1012Z" fill="white"/>
<circle cx="17.3755" cy="20.5489" r="1.63581" fill="black"/>
<circle cx="25.5546" cy="20.5489" r="1.63581" fill="black"/>
<path d="M23.6715 26.0308C23.2956 26.1639 21.8927 26.2325 21.4857 26.2325C21.0788 26.2325 19.6759 26.1639 19.3 26.0308" stroke="black" stroke-width="1.22686" stroke-linecap="round"/>
<!-- <circle cx="35" cy="6" r="4.44444" fill="#00BB15" stroke="white" stroke-width="1.11111"/> -->
</svg>
