<svg width="64" height="64" viewBox="0 0 64 64" fill="none" xmlns="http://www.w3.org/2000/svg">
<circle cx="32" cy="32" r="32" fill="black"/>
<path fill-rule="evenodd" clip-rule="evenodd" d="M33.5999 17.7615C35.1744 17.3774 36.343 15.9576 36.343 14.2649C36.343 12.2773 34.7317 10.666 32.7441 10.666C30.7565 10.666 29.1452 12.2773 29.1452 14.2649C29.1452 15.9974 30.3694 17.444 31.9999 17.7868V22.117H18.3478C16.9023 22.117 15.7305 23.2888 15.7305 24.7343V43.0555C15.7305 44.501 16.9023 45.6728 18.3478 45.6728H22.2733V50.6161C22.2733 51.2753 23.0259 51.6516 23.5533 51.2561L30.9977 45.6728H47.1381C48.5836 45.6728 49.7554 44.501 49.7554 43.0555V24.7343C49.7554 23.2888 48.5836 22.117 47.1381 22.117H33.5999V17.7615Z" fill="white"/>
<circle cx="26.2003" cy="31.2794" r="2.6173" fill="black"/>
<circle cx="39.2872" cy="31.2794" r="2.6173" fill="black"/>
<path d="M36.2747 40.0488C35.6732 40.2619 33.4285 40.3716 32.7775 40.3716C32.1264 40.3716 29.8818 40.2619 29.2803 40.0488" stroke="black" stroke-width="1.96298" stroke-linecap="round"/>
<circle cx="55" cy="9" r="5.44444" fill="#00BB15" stroke="white" stroke-width="1.11111"/>
</svg>
